<svg id="Calque_1" data-name="Calque 1" xmlns="http://www.w3.org/2000/svg" viewBox="0 0 100 50"><defs><style>.cls-1{fill:#315faa;}.cls-2{fill:#009ada;}.cls-3{fill:#fbb433;}.cls-4{fill:#f8b531;}.cls-5{fill:#f29b15;}</style></defs><path class="cls-1" d="M75.09,9.58c1.18,0,2.29,0,3.41,0,.09,0,.21.14.26.25a1.14,1.14,0,0,1,0,.37v9.86a5.29,5.29,0,0,1-2.22,4.66,6.64,6.64,0,0,1-3.36,1.15A8.64,8.64,0,0,1,68.06,25a4.74,4.74,0,0,1-2.56-4.2c-.06-3.6,0-7.2,0-10.8,0-.31.11-.41.41-.4.9,0,1.8,0,2.7,0,.47,0,.58.16.58.6,0,3.29,0,6.57,0,9.85a5.63,5.63,0,0,0,.11,1.23,2.25,2.25,0,0,0,1.94,1.83,5.44,5.44,0,0,0,2,0,2.31,2.31,0,0,0,1.84-2.19,8.36,8.36,0,0,0,0-1c0-3.25,0-6.5,0-9.75Z"/><path class="cls-1" d="M86.79,20.63c0,.17,0,.28,0,.39a2,2,0,0,0,1.65,2,8,8,0,0,0,2.39.06,1.57,1.57,0,0,0,1.4-1.34,1.69,1.69,0,0,0-.9-1.88c-.9-.44-1.87-.74-2.78-1.16a33.9,33.9,0,0,1-3.27-1.57c-2.16-1.23-2.32-4.79-.21-6.36A6.53,6.53,0,0,1,88,9.51a7.71,7.71,0,0,1,6.07,1.1,4.38,4.38,0,0,1,1.84,3.58,2,2,0,0,1-.32.06H92.78c-.29,0-.45-.07-.51-.4a2,2,0,0,0-1.59-1.67,3.47,3.47,0,0,0-2.49.27,1.5,1.5,0,0,0-.08,2.7c1,.46,2.08.82,3.1,1.27a28.87,28.87,0,0,1,3,1.46,4.25,4.25,0,0,1-.26,7.17,8.08,8.08,0,0,1-4.28.92,8.34,8.34,0,0,1-4.26-1.24,4.38,4.38,0,0,1-2.14-3.44c-.06-.59,0-.66.59-.66Z"/><path class="cls-1" d="M52.42,9.64v2.73h-1.8c-.67,0-1.33,0-2,0-.36,0-.45.09-.45.45q0,6.18,0,12.36v.56c-1.18,0-2.3,0-3.41,0-.1,0-.23-.17-.27-.28a1.85,1.85,0,0,1,0-.47c0-4,0-8,0-12,0-.46-.09-.64-.6-.62-1.06.05-2.12,0-3.17,0-.45,0-.58-.14-.55-.57,0-.62,0-1.23,0-1.85,0-.24.06-.38.35-.38H52.29Z"/><path class="cls-1" d="M28.83,25.68v-.57q0-7.48,0-15c0-.46.13-.59.58-.57.87,0,1.74,0,2.6,0,.46,0,.56.15.56.57,0,4.11,0,8.21,0,12.32,0,.42.13.49.5.48,2,0,3.92,0,5.87,0,.5,0,.64.15.61.62s0,1.2,0,1.8c0,.27-.08.39-.38.39H29Z"/><path class="cls-1" d="M15.8,9.81,27.09,26c-1.64,0-3.16,0-4.69,0a.58.58,0,0,1-.4-.27Q18.92,21.37,15.89,17a.76.76,0,0,1-.16-.43c0-2.23,0-4.47,0-6.7Z"/><path class="cls-2" d="M15.63,9.81,4.35,26C6,26,7.51,26,9,26a.62.62,0,0,0,.4-.27Q12.5,21.37,15.55,17a.84.84,0,0,0,.16-.43c0-2.23,0-4.47,0-6.7Z"/><path class="cls-1" d="M60.29,9.61V25.7H56.67v-.56q0-7.47,0-15c0-.48.12-.63.61-.61.85,0,1.7,0,2.56,0Z"/><path class="cls-1" d="M90.12,31.08a.68.68,0,0,1,.91-.43.37.37,0,0,1,.16.29c0,1.32,0,2.65,0,4a1.6,1.6,0,0,1-1.68,1.62,14.37,14.37,0,0,1-1.67-.15l.19-.85c.67.12,1.35.46,1.9-.1.18-.18.17-.55.25-.83L90,34.54a3.7,3.7,0,0,1-.51.29,1.47,1.47,0,0,1-2-1,3,3,0,0,1,.14-2.43A1.37,1.37,0,0,1,89.93,31Zm0,1.7h0c0-.21,0-.41,0-.62a.7.7,0,0,0-.65-.78.72.72,0,0,0-.88.53,6,6,0,0,0,0,1.58c.06.5.43.69.93.63s.64-.29.64-.82Z"/><path class="cls-1" d="M67,28.78c1-.14,1-.14,1,.79v1.56l.38-.23a1.26,1.26,0,0,1,2.13.76,27.3,27.3,0,0,1,0,3.14h-1V33.32c0-.41,0-.82,0-1.23a.74.74,0,0,0-.81-.74.7.7,0,0,0-.73.79q0,1.19,0,2.37c0,.3-.16.36-.39.32S67,35,67,34.57C67,32.65,67,30.73,67,28.78Z"/><path class="cls-1" d="M75.2,34.8c-1.07.11-1.07.11-1.07-.86,0-.63,0-1.26,0-1.89a.65.65,0,0,0-.72-.69.72.72,0,0,0-.77.76V34.8h-1V30.7c.69-.17.85-.11,1.08.46l.28-.23a1.39,1.39,0,0,1,1.54-.23,1.24,1.24,0,0,1,.71,1.2C75.21,32.86,75.2,33.82,75.2,34.8Z"/><path class="cls-1" d="M95.69,30.67c-.24.71-.46,1.38-.69,2-.32.93-.64,1.85-1,2.76a1.37,1.37,0,0,1-1.53,1.07c-.13,0-.35-.18-.34-.25a.67.67,0,0,1,.24-.5c.85-.37,1-.63.66-1.51-.38-1.05-.75-2.11-1.13-3.16,0-.13-.07-.27-.11-.4.86-.27,1.07-.16,1.29.63a12.24,12.24,0,0,0,.68,1.92l.39-1.18c.06-.21.11-.43.18-.64C94.62,30.56,94.63,30.56,95.69,30.67Z"/><path class="cls-1" d="M86.75,32.75a2,2,0,0,1-2.61,2.07,2,2,0,0,1-1-.81,2.35,2.35,0,0,1-.1-2.35,1.86,1.86,0,0,1,2.2-1A2,2,0,0,1,86.75,32.75Zm-1,.08a6.71,6.71,0,0,0-.17-.87.74.74,0,0,0-.76-.59.79.79,0,0,0-.81.53,2.15,2.15,0,0,0,0,1.79.81.81,0,0,0,1.42.05A3.92,3.92,0,0,0,85.73,32.83Z"/><path class="cls-1" d="M80,32.82a1.87,1.87,0,0,1-1,1.86,2,2,0,0,1-2.07,0,2.44,2.44,0,0,1-.66-3,2,2,0,0,1,2.55-.89A2,2,0,0,1,80,32.82Zm-1,0a2.76,2.76,0,0,0-.25-.91,1.06,1.06,0,0,0-.73-.47,1,1,0,0,0-.73.46,2,2,0,0,0,0,1.82.75.75,0,0,0,.76.45.68.68,0,0,0,.71-.44A8.68,8.68,0,0,0,79,32.77Z"/><path class="cls-1" d="M59.49,33c-.1.92.77,1.44,2.11.85.35.53.35.63-.22.85-1.73.66-3.06-.34-3-1.91,0-1.23.48-2,1.5-2.21a1.68,1.68,0,0,1,1.65.45A1.92,1.92,0,0,1,62,32.82c0,.09-.25.2-.38.21C60.9,33.05,60.21,33,59.49,33Zm0-.63h1c.49,0,.64-.28.37-.7a.63.63,0,0,0-.81-.3A.84.84,0,0,0,59.48,32.4Z"/><path class="cls-1" d="M58.2,29.17V30c-.41,0-.79,0-1.18,0s-.43.09-.42.43c0,1.35,0,2.71,0,4.07,0,.1,0,.21,0,.35H55.53v-.51c0-1.27,0-2.55,0-3.83,0-.42-.13-.57-.54-.51-.22,0-.44,0-.66,0s-.43-.07-.43-.39.15-.4.43-.4Z"/><path class="cls-1" d="M66.22,32.09c-.45,0-.87.18-1.11-.41s-.88-.43-1.2,0a2.27,2.27,0,0,0,0,2.2c.27.37,1,.4,1.22,0,.27-.56.68-.35,1.1-.36a1.44,1.44,0,0,1-1.06,1.34,1.85,1.85,0,0,1-2.45-1.15,2.53,2.53,0,0,1,.35-2.47,1.93,1.93,0,0,1,2.11-.52A1.38,1.38,0,0,1,66.22,32.09Z"/><path class="cls-1" d="M80.84,34.84V32.92c0-1.24,0-2.49,0-3.74,0-.41.18-.46.52-.46s.54,0,.54.44c0,1.75,0,3.5,0,5.26,0,.33-.13.45-.45.42S81.09,34.84,80.84,34.84Z"/><polygon class="cls-3" points="11.85 27.28 9.28 30.99 11.85 34.81 14.3 31.04 11.85 27.28"/><polygon class="cls-4" points="19.7 27.28 17.14 30.99 19.7 34.81 22.16 31.04 19.7 27.28"/><polygon class="cls-5" points="15.76 32.68 13.2 36.39 15.76 40.21 18.22 36.45 15.76 32.68"/></svg>